<svg width="582" height="104" viewBox="0 0 582 104" fill="none" xmlns="http://www.w3.org/2000/svg">
<g id="Parkway Logo">
<g id="Group 10">
<g id="Group">
<path id="Vector" d="M67.3217 50.6083V52.0012C67.3217 72.4298 58.036 83.1084 40.393 83.1084C28.3216 83.1084 19.5001 77.0727 16.2501 64.5369L14.8572 65.0012C16.2501 73.8227 17.1786 79.3941 17.1786 85.8942V102.609H0V20.4296H17.1786C17.1786 24.1439 16.2501 29.7153 14.8572 37.6082L16.2501 38.0725C19.5001 25.0725 28.3216 19.501 40.393 19.501C58.036 19.501 67.3217 30.1796 67.3217 50.6083ZM17.1786 49.2154V53.394C17.1786 67.3226 23.2144 75.6798 33.893 75.6798C44.5716 75.6798 50.1431 68.7155 50.1431 53.8583V48.2868C50.1431 33.4296 44.5716 26.4653 33.893 26.4653C23.2144 26.9296 17.1786 35.2868 17.1786 49.2154Z" fill="white"/>
<path id="Vector_2" d="M74.2861 68.2508C74.2861 56.1793 84.5004 51.5364 101.679 48.7507L118.858 45.5007V36.6792C118.858 27.3934 115.143 23.6791 106.786 23.6791C97.0362 23.6791 93.3219 29.2506 93.3219 43.6435L75.6789 41.7864C75.2146 26.9291 85.429 19.0363 106.322 19.0363C126.286 19.0363 135.572 25.5363 135.572 39.4649V71.0365C135.572 75.2151 137.429 75.6794 142.072 74.2865L141.608 78.9294C139.286 82.1794 136.036 83.5723 131.858 83.5723C121.643 83.5723 118.858 78.4651 120.715 66.8579L119.322 66.3936C115.608 77.0722 105.858 83.5723 92.8576 83.5723C80.7861 83.5723 74.2861 78.0008 74.2861 68.2508ZM118.393 56.6436V50.1435L107.715 52.465C97.0362 54.7864 91.4647 58.0364 91.4647 65.9293V66.3936C91.4647 71.9651 94.7147 75.2151 101.215 75.2151C110.501 75.2151 118.393 67.7865 118.393 56.6436Z" fill="white"/>
<path id="Vector_3" d="M149.5 82.179V20.4287H166.679C166.679 25.5358 166.215 30.1787 164.358 41.7859L165.75 42.2502C170.393 25.0716 176.429 19.9644 191.286 18.5715L193.143 32.9645C171.322 34.3573 166.679 38.5359 166.679 55.7146V82.179H149.5Z" fill="white"/>
<path id="Vector_4" d="M200.572 82.179V3.05176e-05H217.751V29.7144C217.751 37.6073 217.286 42.2502 216.358 49.2145L217.286 49.6788L250.251 20.4287H259.537L239.572 39.0002L260.465 82.179H241.429L226.108 49.2145L217.751 56.6431V81.7147H200.572V82.179Z" fill="white"/>
<path id="Vector_5" d="M279.966 82.1785L260.001 20.4282H277.18L286.93 52.9284C288.787 59.4284 290.18 64.9998 291.573 71.4999H292.966C294.358 64.9998 295.751 59.4284 297.144 53.3927L305.966 20.8925H320.359L329.644 53.3927C331.501 59.4284 332.894 64.9998 334.287 71.9642H335.68C337.073 65.4641 338.93 59.8927 340.787 53.3927L351.002 20.8925H358.43L338.93 82.1785H322.68L313.394 51.9998C312.001 47.3569 310.609 41.7855 309.216 34.3569H307.823C306.43 41.3212 305.037 47.3569 303.644 51.9998L295.287 82.6428H279.966V82.1785Z" fill="white"/>
<path id="Vector_6" d="M360.751 68.2508C360.751 56.1793 370.966 51.5364 388.144 48.7507L405.323 45.5007V36.6792C405.323 27.3934 401.609 23.6791 393.251 23.6791C383.501 23.6791 379.787 29.2506 379.787 43.6435L362.144 41.7864C361.68 26.9291 371.894 19.0363 392.787 19.0363C412.752 19.0363 422.037 25.5363 422.037 39.4649V71.0365C422.037 75.2151 423.895 75.6794 428.537 74.2865L428.073 78.9294C425.752 82.1794 422.502 83.5723 418.323 83.5723C408.109 83.5723 405.323 78.4651 407.18 66.8579L405.787 66.3936C402.073 77.5365 392.323 83.5723 379.787 83.5723C367.716 83.5723 360.751 78.0008 360.751 68.2508ZM405.323 56.6436V50.1435L394.644 52.465C383.966 54.7864 378.394 58.0364 378.394 65.9293V66.3936C378.394 71.9651 381.644 75.2151 388.144 75.2151C397.43 75.2151 405.323 67.7865 405.323 56.6436Z" fill="white"/>
<path id="Vector_7" d="M429.466 89.6071L440.609 89.1428C451.752 88.6785 453.609 87.7499 455.002 84.9642L456.395 82.1785L426.216 20.4282H445.252L458.717 50.6069C460.574 55.2498 462.431 59.4284 464.288 64.9998H465.681C467.538 59.4284 468.931 55.2498 470.788 50.6069L482.395 20.4282H490.288L465.681 78.9285C457.324 98.4286 451.752 102.607 430.859 104L429.466 89.6071Z" fill="white"/>
</g>
<path id="Vector_8" d="M513.502 82.1782H578.502C580.36 82.1782 581.752 80.7853 581.752 78.9281V59.4281C554.824 59.4281 533.002 37.6065 533.002 10.6779H513.502C511.645 10.6779 510.252 12.0707 510.252 13.9279V78.9281C510.252 80.321 511.645 82.1782 513.502 82.1782ZM562.252 68.7138H523.252V30.1779C529.288 48.2852 543.681 62.6781 562.252 68.7138Z" fill="#F9956B"/>
</g>
</g>
</svg>
