<svg width="583" height="152" viewBox="0 0 583 152" fill="none" xmlns="http://www.w3.org/2000/svg">
<path d="M67.3217 50.6083V52.0011C67.3217 72.4298 58.036 83.1084 40.393 83.1084C28.3215 83.1084 19.5001 77.0727 16.2501 64.5369L14.8572 65.0012C16.2501 73.8226 17.1786 79.3941 17.1786 85.8941V102.608H0V20.4296H17.1786C17.1786 24.1439 16.2501 29.7153 14.8572 37.6082L16.2501 38.0725C19.5001 25.0724 28.3215 19.501 40.393 19.501C58.036 19.501 67.3217 30.1796 67.3217 50.6083ZM17.1786 49.2154V53.394C17.1786 67.3226 23.2144 75.6798 33.893 75.6798C44.5716 75.6798 50.1431 68.7155 50.1431 53.8583V48.2868C50.1431 33.4296 44.5716 26.4653 33.893 26.4653C23.2144 26.9296 17.1786 35.2868 17.1786 49.2154Z" fill="white"/>
<path d="M74.2861 68.2508C74.2861 56.1793 84.5004 51.5364 101.679 48.7507L118.858 45.5007V36.6792C118.858 27.3934 115.143 23.6791 106.786 23.6791C97.0362 23.6791 93.3219 29.2506 93.3219 43.6435L75.6789 41.7864C75.2146 26.9291 85.429 19.0363 106.322 19.0363C126.286 19.0363 135.572 25.5363 135.572 39.4649V71.0365C135.572 75.2151 137.429 75.6794 142.072 74.2865L141.608 78.9294C139.286 82.1794 136.036 83.5723 131.858 83.5723C121.643 83.5723 118.858 78.4651 120.715 66.8579L119.322 66.3936C115.608 77.0722 105.858 83.5723 92.8576 83.5723C80.7861 83.5723 74.2861 78.0008 74.2861 68.2508ZM118.393 56.6436V50.1435L107.715 52.465C97.0362 54.7864 91.4647 58.0364 91.4647 65.9293V66.3936C91.4647 71.9651 94.7147 75.2151 101.215 75.2151C110.501 75.2151 118.393 67.7865 118.393 56.6436Z" fill="white"/>
<path d="M149.5 82.179V20.4287H166.679C166.679 25.5358 166.215 30.1787 164.358 41.7859L165.75 42.2502C170.393 25.0716 176.429 19.9644 191.286 18.5715L193.143 32.9645C171.322 34.3573 166.679 38.5359 166.679 55.7146V82.179H149.5Z" fill="white"/>
<path d="M200.572 82.1789V0H217.751V29.7144C217.751 37.6073 217.286 42.2502 216.358 49.2145L217.286 49.6788L250.251 20.4287H259.537L239.572 39.0002L260.465 82.1789H241.429L226.108 49.2145L217.751 56.6431V81.7146H200.572V82.1789Z" fill="white"/>
<path d="M279.966 82.1785L260.001 20.4282H277.18L286.93 52.9284C288.787 59.4284 290.18 64.9998 291.573 71.4999H292.966C294.358 64.9998 295.751 59.4284 297.144 53.3926L305.966 20.8925H320.359L329.644 53.3926C331.501 59.4284 332.894 64.9998 334.287 71.9642H335.68C337.073 65.4641 338.93 59.8927 340.787 53.3926L351.002 20.8925H358.43L338.93 82.1785H322.68L313.394 51.9998C312.001 47.3569 310.609 41.7855 309.216 34.3569H307.823C306.43 41.3212 305.037 47.3569 303.644 51.9998L295.287 82.6428H279.966V82.1785Z" fill="white"/>
<path d="M360.751 68.2508C360.751 56.1793 370.966 51.5364 388.144 48.7507L405.323 45.5007V36.6792C405.323 27.3934 401.609 23.6791 393.251 23.6791C383.501 23.6791 379.787 29.2506 379.787 43.6435L362.144 41.7864C361.68 26.9291 371.894 19.0363 392.787 19.0363C412.752 19.0363 422.037 25.5363 422.037 39.4649V71.0365C422.037 75.2151 423.894 75.6794 428.537 74.2865L428.073 78.9294C425.752 82.1794 422.502 83.5723 418.323 83.5723C408.109 83.5723 405.323 78.4651 407.18 66.8579L405.787 66.3936C402.073 77.5365 392.323 83.5723 379.787 83.5723C367.716 83.5723 360.751 78.0008 360.751 68.2508ZM405.323 56.6436V50.1435L394.644 52.465C383.966 54.7864 378.394 58.0364 378.394 65.9293V66.3936C378.394 71.9651 381.644 75.2151 388.144 75.2151C397.43 75.2151 405.323 67.7865 405.323 56.6436Z" fill="white"/>
<path d="M429.466 89.6071L440.609 89.1428C451.752 88.6785 453.609 87.7499 455.002 84.9642L456.395 82.1785L426.216 20.4282H445.252L458.717 50.6069C460.574 55.2498 462.431 59.4284 464.288 64.9998H465.681C467.538 59.4284 468.931 55.2498 470.788 50.6069L482.395 20.4282H490.288L465.681 78.9285C457.324 98.4286 451.752 102.607 430.859 104L429.466 89.6071Z" fill="white"/>
<path d="M513.502 82.1782H578.502C580.36 82.1782 581.752 80.7853 581.752 78.9281V59.4281C554.824 59.4281 533.002 37.6065 533.002 10.6779H513.502C511.645 10.6779 510.252 12.0707 510.252 13.9279V78.9281C510.252 80.321 511.645 82.1782 513.502 82.1782ZM562.252 68.7138H523.252V30.1779C529.288 48.2852 543.681 62.6781 562.252 68.7138Z" fill="#F9956B"/>
<path d="M354.244 145H349.213V142.307H354.066C355.616 142.307 356.906 142.02 357.936 141.445C358.965 140.862 359.736 140.01 360.246 138.889C360.757 137.758 361.012 136.391 361.012 134.787C361.012 133.192 360.757 131.839 360.246 130.727C359.745 129.615 358.993 128.771 357.99 128.197C356.988 127.614 355.743 127.322 354.258 127.322H349.104V124.629H354.449C356.445 124.629 358.159 125.035 359.59 125.846C361.021 126.657 362.119 127.824 362.885 129.346C363.65 130.859 364.033 132.673 364.033 134.787C364.033 136.911 363.646 138.734 362.871 140.256C362.105 141.778 360.993 142.949 359.535 143.77C358.077 144.59 356.313 145 354.244 145ZM350.717 124.629V145H347.641V124.629H350.717ZM366.672 145V124.629H379.455V127.268H369.748V133.406H378.771V136.031H369.748V142.361H379.551V145H366.672ZM384.158 124.629L389.832 141.213H390.051L395.725 124.629H399.033L391.719 145H388.164L380.836 124.629H384.158ZM415.535 145.273C413.785 145.273 412.217 144.854 410.832 144.016C409.447 143.177 408.353 141.979 407.551 140.42C406.749 138.852 406.348 136.988 406.348 134.828C406.348 132.65 406.749 130.781 407.551 129.223C408.353 127.655 409.447 126.452 410.832 125.613C412.217 124.775 413.785 124.355 415.535 124.355C417.303 124.355 418.876 124.775 420.252 125.613C421.628 126.452 422.713 127.655 423.506 129.223C424.308 130.781 424.709 132.65 424.709 134.828C424.709 136.997 424.308 138.861 423.506 140.42C422.713 141.979 421.628 143.177 420.252 144.016C418.876 144.854 417.303 145.273 415.535 145.273ZM415.535 142.471C416.711 142.471 417.759 142.179 418.68 141.596C419.6 141.012 420.325 140.151 420.854 139.012C421.391 137.872 421.66 136.478 421.66 134.828C421.66 133.169 421.391 131.77 420.854 130.631C420.325 129.482 419.6 128.617 418.68 128.033C417.759 127.45 416.711 127.158 415.535 127.158C414.368 127.158 413.32 127.45 412.391 128.033C411.47 128.617 410.741 129.482 410.203 130.631C409.665 131.77 409.396 133.169 409.396 134.828C409.396 136.478 409.665 137.872 410.203 139.012C410.741 140.151 411.47 141.012 412.391 141.596C413.32 142.179 414.368 142.471 415.535 142.471ZM443.822 124.629V145H440.951L430.629 130.07H430.424V145H427.348V124.629H430.191L440.555 139.586H440.746V124.629H443.822ZM447.117 145V124.629H454.596C456.036 124.629 457.23 124.866 458.178 125.34C459.126 125.814 459.832 126.456 460.297 127.268C460.771 128.07 461.008 128.972 461.008 129.975C461.008 130.822 460.848 131.538 460.529 132.121C460.219 132.704 459.805 133.169 459.285 133.516C458.766 133.862 458.191 134.117 457.562 134.281V134.473C458.246 134.509 458.911 134.728 459.559 135.129C460.206 135.53 460.739 136.1 461.158 136.838C461.587 137.567 461.801 138.46 461.801 139.518C461.801 140.557 461.555 141.491 461.062 142.32C460.579 143.141 459.832 143.792 458.82 144.275C457.809 144.758 456.51 145 454.924 145H447.117ZM450.193 142.375H454.623C456.1 142.375 457.157 142.088 457.795 141.514C458.433 140.939 458.752 140.224 458.752 139.367C458.752 138.72 458.588 138.132 458.26 137.604C457.941 137.066 457.48 136.637 456.879 136.318C456.277 135.999 455.566 135.84 454.746 135.84H450.193V142.375ZM450.193 133.447H454.322C455.006 133.447 455.626 133.315 456.182 133.051C456.738 132.786 457.175 132.413 457.494 131.93C457.822 131.438 457.986 130.868 457.986 130.221C457.986 129.382 457.69 128.68 457.098 128.115C456.514 127.541 455.617 127.254 454.404 127.254H450.193V133.447ZM472.793 145.273C471.043 145.273 469.475 144.854 468.09 144.016C466.704 143.177 465.611 141.979 464.809 140.42C464.007 138.852 463.605 136.988 463.605 134.828C463.605 132.65 464.007 130.781 464.809 129.223C465.611 127.655 466.704 126.452 468.09 125.613C469.475 124.775 471.043 124.355 472.793 124.355C474.561 124.355 476.133 124.775 477.51 125.613C478.886 126.452 479.971 127.655 480.764 129.223C481.566 130.781 481.967 132.65 481.967 134.828C481.967 136.997 481.566 138.861 480.764 140.42C479.971 141.979 478.886 143.177 477.51 144.016C476.133 144.854 474.561 145.273 472.793 145.273ZM472.793 142.471C473.969 142.471 475.017 142.179 475.938 141.596C476.858 141.012 477.583 140.151 478.111 139.012C478.649 137.872 478.918 136.478 478.918 134.828C478.918 133.169 478.649 131.77 478.111 130.631C477.583 129.482 476.858 128.617 475.938 128.033C475.017 127.45 473.969 127.158 472.793 127.158C471.626 127.158 470.578 127.45 469.648 128.033C468.728 128.617 467.999 129.482 467.461 130.631C466.923 131.77 466.654 133.169 466.654 134.828C466.654 136.478 466.923 137.872 467.461 139.012C467.999 140.151 468.728 141.012 469.648 141.596C470.578 142.179 471.626 142.471 472.793 142.471ZM485.385 145H482.117L489.445 124.629H493L500.314 145H497.061L491.291 128.334H491.127L485.385 145ZM485.932 137.029H496.5V139.6H485.932V137.029ZM502.051 145V124.629H509.324C510.901 124.629 512.209 124.902 513.248 125.449C514.287 125.987 515.066 126.739 515.586 127.705C516.105 128.662 516.365 129.77 516.365 131.027C516.365 132.267 516.105 133.361 515.586 134.309C515.066 135.257 514.283 135.99 513.234 136.51C512.195 137.029 510.883 137.289 509.297 137.289H503.814V134.664H509.01C510.021 134.664 510.837 134.518 511.457 134.227C512.086 133.935 512.542 133.52 512.824 132.982C513.116 132.445 513.262 131.793 513.262 131.027C513.262 130.253 513.116 129.587 512.824 129.031C512.533 128.466 512.072 128.033 511.443 127.732C510.824 127.423 510.008 127.268 508.996 127.268H505.127V145H502.051ZM513.645 145L508.709 135.799H512.113L517.145 145H513.645ZM525.553 145H520.521V142.307H525.375C526.924 142.307 528.214 142.02 529.244 141.445C530.274 140.862 531.044 140.01 531.555 138.889C532.065 137.758 532.32 136.391 532.32 134.787C532.32 133.192 532.065 131.839 531.555 130.727C531.053 129.615 530.301 128.771 529.299 128.197C528.296 127.614 527.052 127.322 525.566 127.322H520.412V124.629H525.758C527.754 124.629 529.467 125.035 530.898 125.846C532.329 126.657 533.428 127.824 534.193 129.346C534.959 130.859 535.342 132.673 535.342 134.787C535.342 136.911 534.954 138.734 534.18 140.256C533.414 141.778 532.302 142.949 530.844 143.77C529.385 144.59 527.622 145 525.553 145ZM522.025 124.629V145H518.949V124.629H522.025ZM541.057 124.629V145H537.98V124.629H541.057ZM560.826 124.629V145H557.955L547.633 130.07H547.428V145H544.352V124.629H547.195L557.559 139.586H557.75V124.629H560.826ZM572.734 145.273C570.893 145.273 569.275 144.85 567.881 144.002C566.495 143.154 565.411 141.951 564.627 140.393C563.852 138.825 563.465 136.97 563.465 134.828C563.465 132.659 563.857 130.795 564.641 129.236C565.434 127.669 566.518 126.465 567.895 125.627C569.271 124.779 570.839 124.355 572.598 124.355C573.691 124.355 574.712 124.52 575.66 124.848C576.617 125.167 577.465 125.627 578.203 126.229C578.951 126.83 579.566 127.541 580.049 128.361C580.541 129.173 580.874 130.075 581.047 131.068H577.902C577.711 130.458 577.456 129.915 577.137 129.441C576.818 128.958 576.435 128.548 575.988 128.211C575.542 127.865 575.036 127.605 574.471 127.432C573.915 127.249 573.295 127.158 572.611 127.158C571.463 127.158 570.428 127.454 569.508 128.047C568.587 128.63 567.858 129.492 567.32 130.631C566.783 131.77 566.514 133.165 566.514 134.814C566.514 136.464 566.783 137.859 567.32 138.998C567.858 140.137 568.596 141.003 569.535 141.596C570.474 142.179 571.54 142.471 572.734 142.471C573.837 142.471 574.799 142.247 575.619 141.801C576.439 141.345 577.077 140.707 577.533 139.887C577.989 139.066 578.217 138.096 578.217 136.975L579.023 137.125H573.199V134.582H581.211V136.906C581.211 138.62 580.846 140.101 580.117 141.35C579.397 142.598 578.395 143.564 577.109 144.248C575.833 144.932 574.375 145.273 572.734 145.273Z" fill="white"/>
</svg>
